# xmcd CD database file
#
# Track frame offsets:
#	150
#	27470
#	56247
#	85595
#	116310
#	145377
#	177397
#	203837
#	232170
#	259627
#
# Disc length: 3866 seconds
#
# Revision: 0
# Processed by: cddbd v1.5.1PL0 Copyright (c) Steve Scherf et al.
# Submitted via: CDex 1.51
#
DISCID=8c0f180a
DTITLE=Seabirds, Dolphins and Whales - Network Music LLC - A Symphony of the Sea
DYEAR=1998
DGENRE=New Age
TTITLE0=Deep Blue
TTITLE1=Beneath the waves
TTITLE2=Water Colors
TTITLE3=Aquatic Poetry
TTITLE4=Moonlight Tide
TTITLE5=Graceful Diver
TTITLE6=Dolphin Dreams
TTITLE7=Peaceful Mariner
TTITLE8=Poseidon's Realm
TTITLE9=Arc of the Dolphin
EXTD=YEAR: 1998
EXTT0=
EXTT1=
EXTT2=
EXTT3=
EXTT4=
EXTT5=
EXTT6=
EXTT7=
EXTT8=
EXTT9=
PLAYORDER=
